<?xml version="1.0" encoding="UTF-8"?>
<svg version="1.1" xmlns="http://www.w3.org/2000/svg" width="1331" height="1331">
<path d="M0 0 C3.03912369 0.00008077 6.07809504 -0.00679527 9.1171875 -0.02050781 C28.76696447 -0.1076828 48.19101217 0.3666815 67.77563477 2.18530273 C68.59240692 2.26100494 69.40917908 2.33670715 70.2507019 2.41470337 C74.78962188 2.84912802 79.31369361 3.36736352 83.83813477 3.93530273 C84.50442902 4.01800415 85.17072327 4.10070557 85.85720825 4.18591309 C156.46830424 13.01345646 224.62176721 33.42699611 288.77563477 64.18530273 C289.85731934 64.70350586 290.93900391 65.22170898 292.0534668 65.75561523 C308.08978342 73.48923905 323.53145589 81.99560767 338.77563477 91.18530273 C339.61626465 91.68835938 340.45689453 92.19141602 341.32299805 92.7097168 C371.97884869 111.06496137 401.03594442 132.23644083 428.01245117 155.66479492 C429.79080732 157.19838702 431.58329491 158.71364252 433.38110352 160.22436523 C440.00292914 165.80338368 446.27417169 171.54751029 452.33032227 177.73608398 C454.41500119 179.82409307 456.53177079 181.7730219 458.77563477 183.68530273 C466.11431814 189.96914455 472.84548534 196.95446825 479.10766602 204.30249023 C480.87481605 206.29725912 482.73849889 208.14201664 484.65063477 209.99780273 C488.59887446 213.88518324 492.0332963 218.09004249 495.49829102 222.40795898 C497.64053827 225.02054526 499.86204048 227.51339289 502.15063477 229.99780273 C507.16779846 235.51841884 511.73392772 241.34405018 516.2824707 247.25073242 C517.81630776 249.2379994 519.36183641 251.21577849 520.90844727 253.19311523 C528.43223477 262.86264726 535.46944 272.80195315 542.29272461 282.97631836 C543.64017639 284.98352016 544.9970034 286.98392018 546.35766602 288.98217773 C594.57342745 360.08883553 627.95524129 441.79007943 651.47424316 574.74334717 C651.66589242 576.29614086 651.86002881 577.84863113 652.05749512 579.4006958 C657.97162595 625.99585003 657.70137845 676.60957332 651.77563477 723.18530273 C651.56951026 724.85537875 651.36345901 726.52546382 651.1574707 728.19555664 C642.08108849 800.77930499 621.52662076 870.27033624 589.77563477 936.18530273 C589.30802734 937.1643457 588.84041992 938.14338867 588.35864258 939.15209961 C581.73836756 952.96459566 574.30557264 966.20298783 566.45458984 979.35107422 C564.7414446 982.24301883 563.06976134 985.15672527 561.39672852 988.07202148 C557.54850009 994.67691868 553.35211648 1001.03130264 549.08813477 1007.37280273 C548.69512177 1007.95935638 548.30210876 1008.54591003 547.89718628 1009.15023804 C538.01442959 1023.89895986 527.92616878 1038.36359968 516.77563477 1052.18530273 C516.26387695 1052.82322754 515.75211914 1053.46115234 515.22485352 1054.1184082 C504.18267471 1067.87747346 492.82203378 1081.29072023 480.77563477 1094.18530273 C480.14544434 1094.86061035 479.51525391 1095.53591797 478.8659668 1096.23168945 C476.77595758 1098.4686796 474.68277715 1100.70265068 472.58813477 1102.93530273 C471.93490234 1103.63244385 471.28166992 1104.32958496 470.60864258 1105.04785156 C464.24773955 1111.80530963 457.80863045 1118.36572197 450.76391602 1124.41186523 C448.73798495 1126.2188843 446.85333107 1128.11236112 444.96313477 1130.06030273 C441.09795006 1133.98588095 436.91752486 1137.39398991 432.62329102 1140.83764648 C429.78605939 1143.1767085 427.09272418 1145.6188069 424.40063477 1148.12280273 C419.05419662 1153.03125583 413.40149491 1157.44711798 407.60473633 1161.80200195 C405.64808097 1163.28176827 403.70692364 1164.78027112 401.76782227 1166.28295898 C385.64349617 1178.76031708 368.97195003 1190.2359826 351.77563477 1201.18530273 C351.17831543 1201.56638184 350.58099609 1201.94746094 349.96557617 1202.34008789 C318.68603739 1222.20207258 285.16463958 1239.41235957 250.77563477 1253.18530273 C249.44048828 1253.72888428 249.44048828 1253.72888428 248.07836914 1254.28344727 C187.06398152 1279.03002977 122.37491219 1293.96784457 56.77563477 1299.18530273 C55.06114136 1299.32995972 55.06114136 1299.32995972 53.31201172 1299.47753906 C39.08253511 1300.50471025 24.80995471 1300.372564 10.55126953 1300.37060547 C7.51214584 1300.3705247 4.47317449 1300.37740074 1.43408203 1300.39111328 C-24.86705707 1300.50770465 -50.86333139 1299.30436008 -76.97436523 1295.93530273 C-77.80989929 1295.8292572 -78.64543335 1295.72321167 -79.50628662 1295.61395264 C-149.48004881 1286.67402221 -216.73584131 1265.6642437 -280.22436523 1235.18530273 C-281.27253418 1234.68385742 -282.32070313 1234.18241211 -283.40063477 1233.66577148 C-298.80278098 1226.25671114 -313.58279904 1217.99411316 -328.22436523 1209.18530273 C-329.06789551 1208.6807959 -329.91142578 1208.17628906 -330.78051758 1207.65649414 C-347.52312903 1197.63116003 -363.49607937 1186.73150103 -379.22436523 1175.18530273 C-379.7928418 1174.76893555 -380.36131836 1174.35256836 -380.94702148 1173.92358398 C-388.96503796 1168.03566712 -396.73897292 1161.85347778 -404.47290039 1155.6003418 C-406.05751129 1154.32010695 -407.64654217 1153.04534768 -409.23608398 1151.77124023 C-414.891193 1147.20520357 -420.3184379 1142.44772733 -425.66577148 1137.52514648 C-427.86248427 1135.51624426 -430.08985893 1133.56016161 -432.34936523 1131.62280273 C-436.08607213 1128.38178145 -439.53327788 1124.89270635 -443.00561523 1121.37280273 C-445.01867156 1119.38809932 -447.07882926 1117.52433357 -449.22436523 1115.68530273 C-455.81353134 1110.013118 -461.77082526 1103.80383907 -467.41967773 1097.20483398 C-469.39418972 1094.99526105 -471.47681114 1092.94027324 -473.59936523 1090.87280273 C-477.72935853 1086.79880935 -481.35932875 1082.45291751 -484.98217773 1077.92749023 C-487.11061145 1075.32442322 -489.32150215 1072.8452164 -491.59936523 1070.37280273 C-496.61652893 1064.85218663 -501.18265819 1059.02655529 -505.73120117 1053.11987305 C-507.26503823 1051.13260606 -508.81056688 1049.15482697 -510.35717773 1047.17749023 C-517.88096524 1037.50795821 -524.91817047 1027.56865232 -531.74145508 1017.39428711 C-533.08890686 1015.38708531 -534.44573386 1013.38668528 -535.80639648 1011.38842773 C-584.42147171 939.6928781 -618.03193788 857.17951736 -640.92297363 725.6272583 C-641.11462289 724.07446461 -641.30875928 722.52197434 -641.50622559 720.96990967 C-647.42035642 674.37475544 -647.15010892 623.76103215 -641.22436523 577.18530273 C-641.01824073 575.51522671 -640.81218947 573.84514165 -640.60620117 572.17504883 C-631.42392231 498.74444598 -610.36160589 428.82426527 -578.22436523 362.18530273 C-577.77351562 361.23977539 -577.32266602 360.29424805 -576.8581543 359.32006836 C-570.53160043 346.0743092 -563.30846513 333.42800721 -555.79321289 320.82348633 C-554.47943675 318.61423252 -553.18056874 316.39777017 -551.89233398 314.17358398 C-527.99275296 273.16746805 -497.77000456 233.1172482 -463.82983398 199.82202148 C-462.0680928 198.0259885 -460.42800577 196.15447612 -458.78686523 194.24780273 C-453.3885583 188.00601034 -447.53666099 182.39402827 -441.27905273 177.02514648 C-439.05911295 175.03732968 -436.99085226 172.94477873 -434.91186523 170.81030273 C-430.85999112 166.70282829 -426.53872224 163.09928834 -422.03686523 159.49780273 C-419.20907072 157.17272724 -416.52949005 154.7409421 -413.84936523 152.24780273 C-408.50292709 147.33934964 -402.85022538 142.92348749 -397.0534668 138.56860352 C-395.09681144 137.0888372 -393.15565411 135.59033435 -391.21655273 134.08764648 C-376.68735255 122.84517512 -361.76699849 112.31599174 -346.25366211 102.47485352 C-344.35838771 101.27046957 -342.47055202 100.0552265 -340.58374023 98.83764648 C-268.20306666 52.47623294 -185.37927065 21.30682579 -46.22436523 1.18530273 C-45.09313232 1.08886475 -43.96189941 0.99242676 -42.79638672 0.89306641 C-28.55521242 -0.13481705 -14.27039604 -0.00196015 0 0 Z " fill="#747674" transform="translate(661.224365234375,21.814697265625)"/>
<path d="M0 0 C3.01531847 2.72442893 3.85413494 4.79922249 4.140625 8.92578125 C4.2438905 16.3867138 4.20877112 21.41215426 -1 27.125 C-9.02170785 32.03624971 -17.86213332 33.39345004 -27 34.875 C-38.3228359 36.72413294 -49.15184871 39.46692493 -60.0625 43 C-60.83980469 43.25088379 -61.61710938 43.50176758 -62.41796875 43.76025391 C-79.64435328 49.44510703 -96.86715304 57.06388091 -112.0625 67 C-108.54497592 71.27806983 -104.8747385 75.16643974 -100.875 79 C-81.18550129 98.33904383 -69.05076151 124.84914277 -65.0625 152 C-64.9696875 152.62237549 -64.876875 153.24475098 -64.78125 153.88598633 C-59.22716595 196.19124621 -69.34304437 239.65466623 -94.4375 274.1875 C-99.28340133 280.47361676 -104.60070554 286.25251167 -110.0625 292 C-110.63226562 292.63421875 -111.20203125 293.2684375 -111.7890625 293.921875 C-121.24094063 304.10082067 -133.86574006 311.58529875 -146.0625 318 C-146.91457031 318.45890625 -147.76664063 318.9178125 -148.64453125 319.390625 C-174.72891108 332.37119827 -207.66000298 334.21739684 -235.21118164 325.10131836 C-257.73283547 317.07809717 -275.05992423 300.23446229 -285.38452148 278.84619141 C-286.29342611 276.90438804 -287.18277858 274.95517034 -288.0625 273 C-288.4853125 272.07703125 -288.908125 271.1540625 -289.34375 270.203125 C-301.57585062 240.36421289 -296.74647963 202.20414192 -285.0625 173 C-273.45952506 145.95158197 -254.32786985 122.07382876 -234.0625 101 C-233.24265625 100.14728516 -233.24265625 100.14728516 -232.40625 99.27734375 C-225.59563532 92.2386951 -218.7098531 85.60261964 -210.9765625 79.57421875 C-210.34492187 79.05472656 -209.71328125 78.53523438 -209.0625 78 C-209.0625 77.67 -209.0625 77.34 -209.0625 77 C-211.85348957 76.51659331 -214.64519656 76.03820938 -217.4375 75.5625 C-218.21222656 75.42779297 -218.98695313 75.29308594 -219.78515625 75.15429688 C-231.59111728 73.1541134 -243.23420318 72.75860128 -255.1875 72.75 C-256.03120148 72.74932526 -256.87490295 72.74865051 -257.74417114 72.74795532 C-271.71403796 72.7656477 -285.28868197 73.51468624 -299.0625 76 C-300.42060791 76.23348145 -300.42060791 76.23348145 -301.80615234 76.47167969 C-344.71412415 84.05569587 -388.87794105 102.98035978 -420.49169922 133.48486328 C-421.70075076 134.65106997 -422.91738731 135.80941672 -424.13720703 136.96435547 C-435.20411496 147.48057887 -444.99980184 158.01197158 -453.0625 171 C-453.81370117 172.19399414 -453.81370117 172.19399414 -454.58007812 173.41210938 C-466.90511297 193.23397393 -474.97359689 214.02145251 -479.0625 237 C-479.19237305 237.71752441 -479.32224609 238.43504883 -479.45605469 239.17431641 C-486.58704373 280.75177776 -477.46103868 325.20780831 -453.1418457 359.69970703 C-439.46614041 378.61684648 -422.62351978 394.51670608 -400.0625 402 C-398.46341797 402.53560547 -398.46341797 402.53560547 -396.83203125 403.08203125 C-392.49704694 404.137701 -388.62925573 404.34000579 -384.1875 404.3125 C-383.2704126 404.31121094 -382.3533252 404.30992187 -381.40844727 404.30859375 C-371.2414253 404.17982596 -361.13063376 403.30044314 -351 402.5 C-338.59947057 401.52643965 -326.25573024 400.6844698 -313.8125 400.625 C-312.13982056 400.60469727 -312.13982056 400.60469727 -310.43334961 400.58398438 C-299.95778494 400.64154682 -286.53436888 401.8434273 -278.5390625 409.44921875 C-273.49714634 415.23430752 -272.66624391 419.4470308 -272.8125 426.9609375 C-273.36749861 433.70763938 -275.88722224 439.4684135 -281.0625 444 C-293.25344645 452.34866372 -306.17305555 453.22981666 -320.5625 453.25 C-321.25836212 453.25200409 -321.95422424 453.25400818 -322.6711731 453.256073 C-335.8143912 453.2652336 -348.68845362 452.21861425 -361.74609375 450.75390625 C-376.34512036 449.16755065 -390.9483941 448.76033625 -405.625 448.75 C-406.49857147 448.74932526 -407.37214294 448.74865051 -408.27218628 448.74795532 C-422.40031431 448.76519005 -436.13577594 449.45674829 -450.0625 452 C-450.96500488 452.1556543 -451.86750977 452.31130859 -452.79736328 452.47167969 C-492.52855189 459.49172042 -530.28238764 476.70404578 -563.0625 500 C-564.04210693 500.69561035 -564.04210693 500.69561035 -565.04150391 501.40527344 C-574.69273016 508.3197916 -583.56506683 515.72007792 -592.0625 524 C-592.88588867 524.79229004 -593.70927734 525.58458008 -594.55761719 526.40087891 C-606.43821084 537.86123826 -617.61640592 549.39926317 -627.0625 563 C-627.5044873 563.62390625 -627.94647461 564.2478125 -628.40185547 564.890625 C-660.89049308 610.8990787 -675.03157341 665.35390582 -665.56738281 721.26708984 C-658.23827333 760.93926178 -638.01725972 796.97173289 -604.8125 820.625 C-556.15693234 853.0427832 -497.85637274 857.91118437 -441.1875 848.5 C-440.41369995 848.3722821 -439.6398999 848.24456421 -438.84265137 848.11297607 C-422.18717025 845.32203693 -406.16981765 841.02228711 -390.0625 836 C-388.97549805 835.66742187 -387.88849609 835.33484375 -386.76855469 834.9921875 C-332.01288181 818.12846853 -281.52692197 788.82754912 -237.0625 753 C-236.13308594 752.25363281 -235.20367188 751.50726562 -234.24609375 750.73828125 C-231.50072492 748.51241452 -228.77672883 746.26373442 -226.0625 744 C-225.28253662 743.3495874 -225.28253662 743.3495874 -224.48681641 742.68603516 C-211.60261276 731.90040938 -199.40810833 720.41211236 -187.5 708.5625 C-186.85756348 707.92473633 -186.21512695 707.28697266 -185.55322266 706.62988281 C-181.18838361 702.25022452 -177.09370035 697.68662174 -173.0625 693 C-172.11278649 691.91726008 -171.16231118 690.83518772 -170.2109375 689.75390625 C-157.37291597 675.03642401 -145.98549802 659.30494871 -134.86279297 643.27050781 C-130.13662796 636.47160844 -125.88027772 630.38184766 -118.0625 627 C-111.15987556 625.84508618 -105.15125907 627.81848625 -99.0625 631 C-95.27095868 633.84365599 -94.35406739 636.50898975 -93.0625 641 C-90.09782457 662.19874113 -107.00872647 679.83079946 -118.8671875 695.8046875 C-121.22512602 698.90479684 -123.6260957 701.96120913 -126.0625 705 C-126.55282715 705.61359375 -127.0431543 706.2271875 -127.54833984 706.859375 C-145.41648397 729.18219631 -164.20955019 751.83571086 -186.12109375 770.33984375 C-188.59694997 772.45702462 -190.97911268 774.66781829 -193.375 776.875 C-198.7774752 781.79577302 -204.36487581 786.4270049 -210.0625 791 C-211.19448786 791.92389449 -212.32597487 792.8484029 -213.45703125 793.7734375 C-279.92808034 847.87777979 -359.8094451 884.99158532 -528.125 899.8125 C-548.89628563 897.65303103 -568.67472935 893.26589422 -588.51464844 886.80834961 C-591.07389511 885.99638471 -593.64783415 885.2609909 -596.23046875 884.52734375 C-600.73756004 883.18331771 -604.78426776 881.3753587 -608.9375 879.1875 C-610.33443948 878.46706786 -611.73157626 877.74701818 -613.12890625 877.02734375 C-614.13848389 876.50309814 -614.13848389 876.50309814 -615.16845703 875.96826172 C-617.70936897 874.66931138 -620.29512941 873.46937783 -622.875 872.25 C-635.85204023 865.74375169 -648.2207516 857.65456822 -659.0625 848 C-659.95582031 847.21496094 -660.84914063 846.42992187 -661.76953125 845.62109375 C-665.99784586 841.86327974 -670.07175742 838.00942 -674.0625 834 C-675.21298828 832.90171875 -675.21298828 832.90171875 -676.38671875 831.78125 C-702.66227249 806.41774027 -719.21032839 771.72079668 -727.5 736.5625 C-727.73493164 735.57048584 -727.96986328 734.57847168 -728.21191406 733.55639648 C-731.66944316 717.87330061 -732.47639996 702.07481278 -732.4375 686.0625 C-732.43662384 685.17225128 -732.43574768 684.28200256 -732.43484497 683.36477661 C-732.21606461 615.55270713 -698.60656688 558.29996569 -652.0625 511 C-650.10464378 509.1562944 -648.11720736 507.3995701 -646.05078125 505.6796875 C-643.66057124 503.66045311 -641.40650058 501.51625842 -639.125 499.375 C-631.84342081 492.73233375 -623.9769032 486.86236873 -616.0625 481 C-615.18980469 480.35289062 -614.31710937 479.70578125 -613.41796875 479.0390625 C-570.17143599 447.98638574 -516.23294013 422.75293023 -463.0625 416 C-463.0625 415.34 -463.0625 414.68 -463.0625 414 C-463.56136719 413.76667969 -464.06023437 413.53335937 -464.57421875 413.29296875 C-471.78405379 409.62980301 -477.55569496 404.60603231 -483.58349609 399.29980469 C-484.85545421 398.18195969 -486.13948933 397.07788351 -487.42578125 395.9765625 C-489.3292734 394.34288574 -491.20364883 392.68419401 -493.0625 391 C-493.60777344 390.50886719 -494.15304687 390.01773437 -494.71484375 389.51171875 C-510.10920924 374.91423807 -521.91183955 355.44295014 -530.0625 336 C-530.50980469 334.97261719 -530.95710937 333.94523437 -531.41796875 332.88671875 C-544.83603427 300.39435701 -545.6013453 261.21309211 -539.0625 227 C-538.89621094 226.12279297 -538.72992187 225.24558594 -538.55859375 224.34179688 C-531.69183748 189.57566418 -514.30740356 158.28640838 -492.0625 131 C-491.39081787 130.17387207 -491.39081787 130.17387207 -490.70556641 129.33105469 C-479.73972661 115.95250144 -467.73543955 103.62385485 -454.0625 93 C-452.99700585 92.13489235 -451.93328882 91.26759264 -450.87109375 90.3984375 C-427.79867679 71.65875935 -400.4000433 55.46691711 -372.140625 46.0703125 C-368.70211937 44.87468998 -365.40630373 43.43783561 -362.0625 42 C-353.27532651 38.72656037 -344.31634724 36.18483169 -335.25 33.8125 C-333.81914063 33.43774536 -333.81914063 33.43774536 -332.359375 33.05541992 C-322.01196025 30.39770582 -311.61989228 28.54805346 -301.0625 26.9375 C-299.95132812 26.76412109 -298.84015625 26.59074219 -297.6953125 26.41210938 C-296.59960938 26.24388672 -295.50390625 26.07566406 -294.375 25.90234375 C-293.40175781 25.75273193 -292.42851563 25.60312012 -291.42578125 25.44897461 C-283.24984815 24.35754452 -275.20542092 23.83301665 -266.95703125 23.796875 C-265.91592697 23.79117493 -264.87482269 23.78547485 -263.8021698 23.77960205 C-261.60453285 23.77020566 -259.40688214 23.76363956 -257.20922852 23.75976562 C-253.92893138 23.75015796 -250.64928865 23.71912303 -247.36914062 23.6875 C-219.04154251 23.54491634 -187.42826388 27.09138859 -161.41015625 39.23828125 C-157.60485836 40.47294529 -154.73163409 39.78090873 -151.14111328 38.10107422 C-148.93840286 36.92791967 -146.78093548 35.69449255 -144.625 34.4375 C-143.00824225 33.52007559 -141.39104869 32.60341878 -139.7734375 31.6875 C-138.97389648 31.23117187 -138.17435547 30.77484375 -137.35058594 30.3046875 C-107.67056764 13.38086998 -32.17662556 -26.07863604 0 0 Z " fill="#FDFEFD" transform="translate(980.0625,236)"/>
<path d="M0 0 C16.29074537 5.55767306 27.86061591 23.02385562 35.21484375 37.67114258 C46.97044626 62.39914539 46.39495765 95.40037161 37.38500977 120.92431641 C27.47806881 147.4146671 12.64417565 171.37262213 -13.75 183.8125 C-27.75784453 189.87263132 -42.46562364 190.91475302 -57 186 C-68.30088199 180.61932199 -74.22617947 172.71748127 -78.95703125 161.3828125 C-86.27412342 137.65022142 -84.15675184 105.85380097 -72.51953125 83.7578125 C-72.01808594 82.84773438 -71.51664063 81.93765625 -71 81 C-70.32517578 79.54207031 -70.32517578 79.54207031 -69.63671875 78.0546875 C-63.91798058 65.71510036 -55.50807522 55.31931047 -46.66015625 45.09765625 C-44.15797492 42.20594615 -41.76342695 39.23657213 -39.375 36.25 C-30.50138688 25.36756537 -19.89174216 16.48099751 -9.0625 7.625 C-7.55301815 6.38846903 -6.0438841 5.15151333 -4.53515625 3.9140625 C-3.879104 3.3773291 -3.22305176 2.8405957 -2.54711914 2.28759766 C-1.05604678 1.08643673 -1.05604678 1.08643673 0 0 Z " fill="#94A298" transform="translate(820,332)"/>
<path d="M0 0 C11.55 0 23.1 0 35 0 C34 3 34 3 32.19750977 4.17089844 C29.91131938 5.03345844 28.27215818 5.25784248 25.83984375 5.265625 C25.0506958 5.26949219 24.26154785 5.27335937 23.44848633 5.27734375 C22.61986084 5.26832031 21.79123535 5.25929688 20.9375 5.25 C19.66845825 5.24419922 19.66845825 5.24419922 18.3737793 5.23828125 C12.09754048 5.1518697 6.10287264 4.5360039 0 3 C0 2.01 0 1.02 0 0 Z " fill="#67796D" transform="translate(489,1156)"/>
<path d="M0 0 C1.60746056 0.42523816 3.21089836 0.86570126 4.8125 1.3125 C6.15248047 1.67794922 6.15248047 1.67794922 7.51953125 2.05078125 C10.05247738 3.0200819 11.2716496 3.95009604 13 6 C9.42423881 7.1919204 8.70817048 6.74829813 5.375 5.25 C4.57835937 4.90453125 3.78171875 4.5590625 2.9609375 4.203125 C1 3 1 3 0 0 Z " fill="#718878" transform="translate(463,1150)"/>
<path d="M0 0 C-0.99 1.485 -0.99 1.485 -2 3 C-5.625 3.6875 -5.625 3.6875 -9 4 C-8.67 3.01 -8.34 2.02 -8 1 C-5.07175348 0.02391783 -3.04386724 -0.08226668 0 0 Z " fill="#6F8475" transform="translate(533,1154)"/>
<path d="M0 0 C3.4375 1.25 3.4375 1.25 7 3 C7.33 4.32 7.66 5.64 8 7 C5.36 5.68 2.72 4.36 0 3 C0 2.01 0 1.02 0 0 Z " fill="#6F8676" transform="translate(451,1149)"/>
</svg>
